<svg xmlns="http://www.w3.org/2000/svg" height="56px"  xmlns:xlink="http://www.w3.org/1999/xlink" version="1.1" x="0px" y="0px" viewBox="0 0 100 125"
    enable-background="new 0 0 100 100" xml:space="preserve">
    <g>
        <g>
            <path fill="#fdd835" d="M65.679,46.778c0.015,0.529-0.451,0.945-0.957,0.957c-9.755,0.241-19.511,0.485-29.266,0.724    c-9.536,0.234-19.112,0.633-28.652,0.479c0.016,1.246-0.089,2.534-0.164,3.79c0.049-0.004,0.097-0.01,0.151-0.007l57.377,2.887    c0.506,0.026,0.99,0.426,0.968,0.968c-0.075,1.902-0.15,3.804-0.226,5.707c8.627-4.817,17.479-9.208,26.533-13.163    c-8.776-3.256-17.314-7.103-25.566-11.524C65.668,40.654,65.596,43.713,65.679,46.778z"
            />
            <path fill="#fdd835" d="M94.287,48.11c-9.92-3.547-19.531-7.861-28.78-12.907c-0.683-0.373-1.398,0.107-1.46,0.838    c-0.278,3.268-0.372,6.534-0.3,9.81c-9.431,0.279-18.862,0.557-28.292,0.839c-9.745,0.291-19.542,0.409-29.266,1.12    c-0.075,0.005-0.14,0.024-0.2,0.049c-0.323-0.009-0.641,0.163-0.739,0.564c-0.391,1.59-0.275,3.516,0.009,5.118    c0.067,0.377,0.369,0.518,0.669,0.485c0.122,0.334,0.408,0.608,0.862,0.631c18.791,0.947,37.582,1.893,56.373,2.84    c-0.085,2.158-0.171,4.316-0.256,6.474c-0.03,0.75,0.84,1.185,1.457,0.836c9.77-5.529,19.833-10.509,30.155-14.924    C95.36,49.522,94.98,48.357,94.287,48.11z M64.91,62.284c0.075-1.902,0.15-3.804,0.226-5.707c0.021-0.542-0.462-0.943-0.968-0.968    L6.791,52.722c-0.054-0.003-0.102,0.003-0.151,0.007c0.075-1.256,0.18-2.545,0.164-3.79c9.54,0.155,19.116-0.245,28.652-0.479    c9.755-0.24,19.511-0.483,29.266-0.724c0.507-0.013,0.972-0.428,0.957-0.957c-0.083-3.066-0.011-6.125,0.199-9.182    c8.251,4.422,16.79,8.268,25.566,11.524C82.39,53.076,73.537,57.467,64.91,62.284z"
            />
        </g>
    </g>
</svg>